# xmcd CD database file
#
# Track frame offsets:
#	150
#	15445
#	31021
#	46296
#	68655
#	83204
#	97847
#	113049
#	127968
#	141058
#	152706
#	168956
#	183617
#	196554
#	207773
#	223389
#	237868
#	252460
#	267844
#	283928
#
# Disc length: 3984 seconds
#
# Revision: 0
# Processed by: cddbd v1.5.2PL0 Copyright (c) Steve Scherf et al.
# Submitted via: CDex 1.51
#
DISCID=0f0f8e14
DTITLE=Glenn Miller - Colección Grandes Maestros del Jazz 8
DYEAR=2011
DGENRE=Jazz
TTITLE0=Moonlight Serenade
TTITLE1=Tuxedo Junction
TTITLE2=Ciribiribin
TTITLE3=Anvil Chorus
TTITLE4=A String of Pearls
TTITLE5=Pennsylvania 6-5000
TTITLE6=Stardust
TTITLE7=Indian Summer
TTITLE8=Moon Love
TTITLE9=Fools Rush In (Where Angels Fear to Tread)
TTITLE10=St. Louis Blues March
TTITLE11=I've Got a Gal in Kalamazoo
TTITLE12=Little Brown Jug
TTITLE13=Over The Rainbow
TTITLE14=Serenade in Blue
TTITLE15=Don't Sit Under the Apple Tree
TTITLE16=Cuckoo in the Clock
TTITLE17=Chattanooga Choo Choo
TTITLE18=In the Mood
TTITLE19=American Patrol
EXTD=YEAR: 2011
EXTT0=
EXTT1=
EXTT2=
EXTT3=
EXTT4=
EXTT5=
EXTT6=
EXTT7=
EXTT8=
EXTT9=
EXTT10=
EXTT11=
EXTT12=
EXTT13=
EXTT14=
EXTT15=
EXTT16=
EXTT17=
EXTT18=
EXTT19=
PLAYORDER=
